<?xml version="1.0" encoding="UTF-8" ?>
<!DOCTYPE score-partwise PUBLIC "-//Recordare//DTD MusicXML 1.1 Partwise//EN"
        "http://www.musicxml.org/dtds/partwise.dtd">
<score-partwise>
    <work>
        <work-title>Titel</work-title>
    </work>
    <identification>
        <encoding>
            <software>PriMus Music-Notation</software>
            <software>Build 10961</software>
            <software>http://www.columbussoft.de</software>
            <encoding-date>2016-04-24</encoding-date>
        </encoding>
    </identification>
    <defaults>
        <scaling>
            <millimeters>7</millimeters>
            <tenths>40</tenths>
        </scaling>
        <page-layout>
            <page-height>1697</page-height>
            <page-width>1200</page-width>
            <page-margins>
                <left-margin>57</left-margin>
                <right-margin>57</right-margin>
                <top-margin>68</top-margin>
                <bottom-margin>85</bottom-margin>
            </page-margins>
        </page-layout>
    </defaults>
    <credit>
        <credit-words>Titel</credit-words>
    </credit>
    <part-list>
        <part-group number="200" type="start">
            <group-symbol>brace</group-symbol>
        </part-group>
        <part-group number="1" type="start">
            <group-symbol>line</group-symbol>
        </part-group>
        <score-part id="P1">
            <part-name>part-1</part-name>
            <midi-instrument id="P1">
                <midi-channel>1</midi-channel>
                <midi-bank>1</midi-bank>
                <midi-program>57</midi-program>
            </midi-instrument>
        </score-part>
        <score-part id="P2">
            <part-name>part-2</part-name>
            <midi-instrument id="P2">
                <midi-channel>2</midi-channel>
                <midi-bank>1</midi-bank>
                <midi-program>57</midi-program>
            </midi-instrument>
        </score-part>
        <score-part id="P3">
            <part-name>Horn in B</part-name>
            <part-abbreviation>Hrn.</part-abbreviation>
            <midi-instrument id="P3">
                <midi-channel>3</midi-channel>
                <midi-bank>1</midi-bank>
                <midi-program>61</midi-program>
            </midi-instrument>
        </score-part>
        <score-part id="P4">
            <part-name>Tuba</part-name>
            <part-abbreviation>Tb.</part-abbreviation>
            <midi-instrument id="P4">
                <midi-channel>4</midi-channel>
                <midi-bank>1</midi-bank>
                <midi-program>59</midi-program>
            </midi-instrument>
        </score-part>
        <part-group number="200" type="stop">
            <group-symbol>brace</group-symbol>
        </part-group>
        <part-group number="1" type="stop">
            <group-symbol>line</group-symbol>
        </part-group>
    </part-list>
    <part id="P1">
        <!--=============== 1 ===============-->
        <measure number="0">
            <attributes>
                <divisions>960</divisions>
                <key>
                    <fifths>-2</fifths>
                </key>
                <time symbol="common">
                    <beats>4</beats>
                    <beat-type>4</beat-type>
                </time>
                <clef>
                    <sign>G</sign>
                </clef>
            </attributes>
            <note>
                <pitch>
                    <step>B</step>
                    <alter>-1</alter>
                    <octave>4</octave>
                </pitch>
                <duration>960</duration>
                <type>quarter</type>
            </note>
        </measure>
        <!--=============== 2 ===============-->
        <measure number="1">
            <print new-system="no"/>
            <attributes>
                <divisions>960</divisions>
            </attributes>
            <note>
                <pitch>
                    <step>B</step>
                    <alter>-1</alter>
                    <octave>4</octave>
                </pitch>
                <duration>1920</duration>
                <type>half</type>
            </note>
            <note>
                <pitch>
                    <step>F</step>
                    <octave>4</octave>
                </pitch>
                <duration>960</duration>
                <type>quarter</type>
            </note>
            <note>
                <pitch>
                    <step>B</step>
                    <alter>-1</alter>
                    <octave>4</octave>
                </pitch>
                <duration>960</duration>
                <type>quarter</type>
            </note>
        </measure>
        <!--=============== 3 ===============-->
        <measure number="2">
            <print new-system="no"/>
            <attributes>
                <divisions>960</divisions>
            </attributes>
            <note>
                <pitch>
                    <step>C</step>
                    <octave>5</octave>
                </pitch>
                <duration>1920</duration>
                <type>half</type>
            </note>
            <note>
                <pitch>
                    <step>F</step>
                    <octave>4</octave>
                </pitch>
                <duration>960</duration>
                <type>quarter</type>
            </note>
            <note>
                <pitch>
                    <step>G</step>
                    <octave>4</octave>
                </pitch>
                <duration>480</duration>
                <type>eighth</type>
                <stem>up</stem>
                <beam number="1">begin</beam>
            </note>
            <note>
                <pitch>
                    <step>A</step>
                    <octave>4</octave>
                </pitch>
                <duration>480</duration>
                <type>eighth</type>
                <stem>up</stem>
                <beam number="1">end</beam>
            </note>
        </measure>
        <!--=============== 4 ===============-->
        <measure number="3">
            <print new-system="no"/>
            <attributes>
                <divisions>960</divisions>
            </attributes>
            <note>
                <pitch>
                    <step>B</step>
                    <alter>-1</alter>
                    <octave>4</octave>
                </pitch>
                <duration>960</duration>
                <type>quarter</type>
            </note>
            <note>
                <pitch>
                    <step>C</step>
                    <octave>5</octave>
                </pitch>
                <duration>960</duration>
                <type>quarter</type>
            </note>
            <note>
                <pitch>
                    <step>D</step>
                    <octave>5</octave>
                </pitch>
                <duration>960</duration>
                <type>quarter</type>
            </note>
            <note>
                <pitch>
                    <step>E</step>
                    <alter>-1</alter>
                    <octave>5</octave>
                </pitch>
                <duration>960</duration>
                <type>quarter</type>
            </note>
        </measure>
        <!--=============== 5 ===============-->
        <measure number="4">
            <print new-system="no"/>
            <attributes>
                <divisions>960</divisions>
            </attributes>
            <note>
                <pitch>
                    <step>D</step>
                    <octave>5</octave>
                </pitch>
                <duration>1920</duration>
                <type>half</type>
            </note>
            <note>
                <pitch>
                    <step>C</step>
                    <octave>5</octave>
                </pitch>
                <duration>960</duration>
                <type>quarter</type>
            </note>
            <note>
                <pitch>
                    <step>B</step>
                    <alter>-1</alter>
                    <octave>4</octave>
                </pitch>
                <duration>960</duration>
                <type>quarter</type>
            </note>
        </measure>
        <!--=============== 6 ===============-->
        <measure number="5">
            <print new-system="no"/>
            <attributes>
                <divisions>960</divisions>
            </attributes>
            <note>
                <pitch>
                    <step>B</step>
                    <alter>-1</alter>
                    <octave>4</octave>
                </pitch>
                <duration>1920</duration>
                <type>half</type>
            </note>
            <note>
                <pitch>
                    <step>A</step>
                    <octave>4</octave>
                </pitch>
                <duration>960</duration>
                <type>quarter</type>
            </note>
            <note>
                <pitch>
                    <step>G</step>
                    <octave>4</octave>
                </pitch>
                <duration>960</duration>
                <type>quarter</type>
            </note>
        </measure>
        <!--=============== 7 ===============-->
        <measure number="6">
            <print new-system="no"/>
            <attributes>
                <divisions>960</divisions>
            </attributes>
            <note>
                <pitch>
                    <step>A</step>
                    <octave>4</octave>
                </pitch>
                <duration>960</duration>
                <type>quarter</type>
                <notations>
                    <slur type="start"/>
                </notations>
            </note>
            <note>
                <pitch>
                    <step>B</step>
                    <alter>-1</alter>
                    <octave>4</octave>
                </pitch>
                <duration>960</duration>
                <type>quarter</type>
                <notations>
                    <slur type="stop"/>
                </notations>
            </note>
            <note>
                <pitch>
                    <step>C</step>
                    <octave>5</octave>
                </pitch>
                <duration>960</duration>
                <type>quarter</type>
            </note>
            <note>
                <pitch>
                    <step>D</step>
                    <octave>5</octave>
                </pitch>
                <duration>960</duration>
                <type>quarter</type>
            </note>
        </measure>
        <!--=============== 8 ===============-->
        <measure number="7">
            <print new-system="no"/>
            <attributes>
                <divisions>960</divisions>
            </attributes>
            <note>
                <pitch>
                    <step>A</step>
                    <octave>4</octave>
                </pitch>
                <duration>960</duration>
                <type>quarter</type>
                <notations>
                    <slur type="start"/>
                </notations>
            </note>
            <note>
                <pitch>
                    <step>B</step>
                    <alter>-1</alter>
                    <octave>4</octave>
                </pitch>
                <duration>960</duration>
                <type>quarter</type>
                <notations>
                    <slur type="stop"/>
                </notations>
            </note>
            <note>
                <pitch>
                    <step>G</step>
                    <octave>4</octave>
                </pitch>
                <duration>1920</duration>
                <type>half</type>
            </note>
        </measure>
        <!--=============== 9 ===============-->
        <measure number="8">
            <print new-system="no"/>
            <attributes>
                <divisions>960</divisions>
            </attributes>
            <note>
                <pitch>
                    <step>F</step>
                    <octave>4</octave>
                </pitch>
                <duration>2880</duration>
                <type>half</type>
                <dot/>
            </note>
            <note>
                <rest/>
                <duration>960</duration>
                <type>quarter</type>
            </note>
        </measure>
        <!--=============== 10 ===============-->
        <measure number="9">
            <print new-system="no"/>
            <attributes>
                <divisions>960</divisions>
            </attributes>
            <note>
                <pitch>
                    <step>D</step>
                    <octave>5</octave>
                </pitch>
                <duration>1920</duration>
                <type>half</type>
            </note>
            <note>
                <chord/>
                <pitch>
                    <step>F</step>
                    <octave>5</octave>
                </pitch>
                <duration>1920</duration>
                <type>half</type>
            </note>
            <note>
                <pitch>
                    <step>A</step>
                    <octave>4</octave>
                </pitch>
                <duration>960</duration>
                <type>quarter</type>
            </note>
            <note>
                <chord/>
                <pitch>
                    <step>E</step>
                    <alter>-1</alter>
                    <octave>5</octave>
                </pitch>
                <duration>960</duration>
                <type>quarter</type>
            </note>
            <note>
                <pitch>
                    <step>B</step>
                    <alter>-1</alter>
                    <octave>4</octave>
                </pitch>
                <duration>960</duration>
                <type>quarter</type>
            </note>
            <note>
                <chord/>
                <pitch>
                    <step>D</step>
                    <octave>5</octave>
                </pitch>
                <duration>960</duration>
                <type>quarter</type>
            </note>
        </measure>
        <!--=============== 11 ===============-->
        <measure number="10">
            <print new-system="no"/>
            <attributes>
                <divisions>960</divisions>
            </attributes>
            <note>
                <pitch>
                    <step>B</step>
                    <alter>-1</alter>
                    <octave>4</octave>
                </pitch>
                <duration>1920</duration>
                <type>half</type>
            </note>
            <note>
                <chord/>
                <pitch>
                    <step>E</step>
                    <alter>-1</alter>
                    <octave>5</octave>
                </pitch>
                <duration>1920</duration>
                <type>half</type>
            </note>
            <note>
                <pitch>
                    <step>B</step>
                    <alter>-1</alter>
                    <octave>4</octave>
                </pitch>
                <duration>1920</duration>
                <type>half</type>
            </note>
            <note>
                <chord/>
                <pitch>
                    <step>D</step>
                    <octave>5</octave>
                </pitch>
                <duration>1920</duration>
                <type>half</type>
            </note>
        </measure>
        <!--=============== 12 ===============-->
        <measure number="11">
            <print new-system="no"/>
            <attributes>
                <divisions>960</divisions>
            </attributes>
            <note>
                <pitch>
                    <step>A</step>
                    <octave>4</octave>
                </pitch>
                <duration>960</duration>
                <type>quarter</type>
            </note>
            <note>
                <chord/>
                <pitch>
                    <step>C</step>
                    <octave>5</octave>
                </pitch>
                <duration>960</duration>
                <type>quarter</type>
            </note>
            <note>
                <pitch>
                    <step>A</step>
                    <octave>4</octave>
                </pitch>
                <duration>960</duration>
                <type>quarter</type>
            </note>
            <note>
                <chord/>
                <pitch>
                    <step>D</step>
                    <octave>5</octave>
                </pitch>
                <duration>960</duration>
                <type>quarter</type>
            </note>
            <note>
                <pitch>
                    <step>G</step>
                    <octave>4</octave>
                </pitch>
                <duration>960</duration>
                <type>quarter</type>
            </note>
            <note>
                <chord/>
                <pitch>
                    <step>B</step>
                    <alter>-1</alter>
                    <octave>4</octave>
                </pitch>
                <duration>960</duration>
                <type>quarter</type>
            </note>
            <note>
                <pitch>
                    <step>C</step>
                    <octave>5</octave>
                </pitch>
                <duration>960</duration>
                <type>quarter</type>
            </note>
        </measure>
        <!--=============== 13 ===============-->
        <measure number="12">
            <print new-system="no"/>
            <attributes>
                <divisions>960</divisions>
            </attributes>
            <note>
                <pitch>
                    <step>A</step>
                    <octave>4</octave>
                </pitch>
                <duration>960</duration>
                <type>quarter</type>
                <notations>
                    <slur type="start"/>
                </notations>
            </note>
            <note>
                <pitch>
                    <step>G</step>
                    <octave>4</octave>
                </pitch>
                <duration>960</duration>
                <type>quarter</type>
                <notations>
                    <slur type="stop"/>
                </notations>
            </note>
            <note>
                <pitch>
                    <step>F</step>
                    <octave>4</octave>
                </pitch>
                <duration>960</duration>
                <type>quarter</type>
            </note>
            <note>
                <pitch>
                    <step>B</step>
                    <alter>-1</alter>
                    <octave>4</octave>
                </pitch>
                <duration>960</duration>
                <type>quarter</type>
            </note>
        </measure>
        <!--=============== 14 ===============-->
        <measure number="13">
            <print new-system="no"/>
            <attributes>
                <divisions>960</divisions>
            </attributes>
            <note>
                <pitch>
                    <step>B</step>
                    <alter>-1</alter>
                    <octave>4</octave>
                </pitch>
                <duration>960</duration>
                <type>quarter</type>
            </note>
            <note>
                <pitch>
                    <step>A</step>
                    <octave>4</octave>
                </pitch>
                <duration>960</duration>
                <type>quarter</type>
            </note>
            <note>
                <pitch>
                    <step>B</step>
                    <alter>-1</alter>
                    <octave>4</octave>
                </pitch>
                <duration>960</duration>
                <type>quarter</type>
            </note>
            <note>
                <pitch>
                    <step>C</step>
                    <octave>5</octave>
                </pitch>
                <duration>960</duration>
                <type>quarter</type>
            </note>
        </measure>
        <!--=============== 15 ===============-->
        <measure number="14">
            <print new-system="no"/>
            <attributes>
                <divisions>960</divisions>
            </attributes>
            <note>
                <pitch>
                    <step>B</step>
                    <alter>-1</alter>
                    <octave>4</octave>
                </pitch>
                <duration>1920</duration>
                <type>half</type>
            </note>
            <note>
                <pitch>
                    <step>F</step>
                    <octave>4</octave>
                </pitch>
                <duration>960</duration>
                <type>quarter</type>
            </note>
            <note>
                <pitch>
                    <step>B</step>
                    <alter>-1</alter>
                    <octave>4</octave>
                </pitch>
                <duration>960</duration>
                <type>quarter</type>
            </note>
            <note>
                <chord/>
                <pitch>
                    <step>D</step>
                    <octave>5</octave>
                </pitch>
                <duration>960</duration>
                <type>quarter</type>
            </note>
        </measure>
        <!--=============== 16 ===============-->
        <measure number="15">
            <print new-system="no"/>
            <attributes>
                <divisions>960</divisions>
            </attributes>
            <note>
                <pitch>
                    <step>B</step>
                    <alter>-1</alter>
                    <octave>4</octave>
                </pitch>
                <duration>960</duration>
                <type>quarter</type>
            </note>
            <note>
                <chord/>
                <pitch>
                    <step>D</step>
                    <octave>5</octave>
                </pitch>
                <duration>960</duration>
                <type>quarter</type>
            </note>
            <note>
                <pitch>
                    <step>A</step>
                    <octave>4</octave>
                </pitch>
                <duration>960</duration>
                <type>quarter</type>
            </note>
            <note>
                <chord/>
                <pitch>
                    <step>C</step>
                    <octave>5</octave>
                </pitch>
                <duration>960</duration>
                <type>quarter</type>
            </note>
            <note>
                <pitch>
                    <step>B</step>
                    <alter>-1</alter>
                    <octave>4</octave>
                </pitch>
                <duration>960</duration>
                <type>quarter</type>
            </note>
            <note>
                <chord/>
                <pitch>
                    <step>D</step>
                    <octave>5</octave>
                </pitch>
                <duration>960</duration>
                <type>quarter</type>
            </note>
            <note>
                <pitch>
                    <step>G</step>
                    <octave>4</octave>
                </pitch>
                <duration>960</duration>
                <type>quarter</type>
            </note>
            <note>
                <chord/>
                <pitch>
                    <step>E</step>
                    <alter>-1</alter>
                    <octave>5</octave>
                </pitch>
                <duration>960</duration>
                <type>quarter</type>
            </note>
        </measure>
        <!--=============== 17 ===============-->
        <measure number="16">
            <print new-system="no"/>
            <attributes>
                <divisions>960</divisions>
            </attributes>
            <note>
                <pitch>
                    <step>B</step>
                    <alter>-1</alter>
                    <octave>4</octave>
                </pitch>
                <duration>1920</duration>
                <type>half</type>
            </note>
            <note>
                <chord/>
                <pitch>
                    <step>D</step>
                    <octave>5</octave>
                </pitch>
                <duration>1920</duration>
                <type>half</type>
            </note>
            <note>
                <pitch>
                    <step>A</step>
                    <octave>4</octave>
                </pitch>
                <duration>960</duration>
                <type>quarter</type>
            </note>
            <note>
                <chord/>
                <pitch>
                    <step>C</step>
                    <octave>5</octave>
                </pitch>
                <duration>960</duration>
                <type>quarter</type>
            </note>
            <note>
                <pitch>
                    <step>B</step>
                    <alter>-1</alter>
                    <octave>4</octave>
                </pitch>
                <duration>960</duration>
                <type>quarter</type>
            </note>
            <note>
                <chord/>
                <pitch>
                    <step>F</step>
                    <octave>5</octave>
                </pitch>
                <duration>960</duration>
                <type>quarter</type>
            </note>
        </measure>
        <!--=============== 18 ===============-->
        <measure number="17">
            <print new-system="no"/>
            <attributes>
                <divisions>960</divisions>
            </attributes>
            <note>
                <pitch>
                    <step>A</step>
                    <octave>4</octave>
                </pitch>
                <duration>960</duration>
                <type>quarter</type>
            </note>
            <note>
                <chord/>
                <pitch>
                    <step>E</step>
                    <alter>-1</alter>
                    <octave>5</octave>
                </pitch>
                <duration>960</duration>
                <type>quarter</type>
            </note>
            <note>
                <pitch>
                    <step>B</step>
                    <alter>-1</alter>
                    <octave>4</octave>
                </pitch>
                <duration>960</duration>
                <type>quarter</type>
            </note>
            <note>
                <chord/>
                <pitch>
                    <step>D</step>
                    <octave>5</octave>
                </pitch>
                <duration>960</duration>
                <type>quarter</type>
            </note>
            <note>
                <pitch>
                    <step>C</step>
                    <octave>5</octave>
                </pitch>
                <duration>960</duration>
                <type>quarter</type>
            </note>
            <note>
                <pitch>
                    <step>B</step>
                    <alter>-1</alter>
                    <octave>4</octave>
                </pitch>
                <duration>960</duration>
                <type>quarter</type>
            </note>
        </measure>
        <!--=============== 19 ===============-->
        <measure number="18">
            <print new-system="no"/>
            <attributes>
                <divisions>960</divisions>
            </attributes>
            <note>
                <pitch>
                    <step>A</step>
                    <octave>4</octave>
                </pitch>
                <duration>1920</duration>
                <type>half</type>
            </note>
            <note>
                <pitch>
                    <step>B</step>
                    <alter>-1</alter>
                    <octave>4</octave>
                </pitch>
                <duration>960</duration>
                <type>quarter</type>
                <notations>
                    <slur type="start"/>
                </notations>
            </note>
            <note>
                <pitch>
                    <step>E</step>
                    <alter>-1</alter>
                    <octave>5</octave>
                </pitch>
                <duration>960</duration>
                <type>quarter</type>
                <notations>
                    <slur type="stop"/>
                </notations>
            </note>
        </measure>
        <!--=============== 20 ===============-->
        <measure number="19">
            <print new-system="no"/>
            <attributes>
                <divisions>960</divisions>
            </attributes>
            <note>
                <pitch>
                    <step>D</step>
                    <octave>5</octave>
                </pitch>
                <duration>1920</duration>
                <type>half</type>
                <notations>
                    <slur type="start"/>
                </notations>
            </note>
            <note>
                <pitch>
                    <step>C</step>
                    <octave>5</octave>
                </pitch>
                <duration>960</duration>
                <type>quarter</type>
                <notations>
                    <slur type="stop"/>
                </notations>
            </note>
            <note>
                <pitch>
                    <step>A</step>
                    <octave>4</octave>
                </pitch>
                <duration>960</duration>
                <type>quarter</type>
            </note>
        </measure>
        <!--=============== 21 ===============-->
        <measure number="20">
            <print new-system="no"/>
            <attributes>
                <divisions>960</divisions>
            </attributes>
            <barline location="right">
                <bar-style>light-heavy</bar-style>
                <repeat direction="backward"/>
            </barline>
            <note>
                <pitch>
                    <step>B</step>
                    <alter>-1</alter>
                    <octave>4</octave>
                </pitch>
                <duration>2880</duration>
                <type>half</type>
                <dot/>
            </note>
        </measure>
        <!--=============== 22 ===============-->
        <measure number="21">
            <print new-system="no"/>
            <attributes>
                <divisions>960</divisions>
            </attributes>
            <barline location="left">
                <bar-style>light-heavy</bar-style>
            </barline>
        </measure>
    </part>
    <part id="P2">
        <!--=============== 1 ===============-->
        <measure number="0">
            <attributes>
                <divisions>960</divisions>
                <key>
                    <fifths>-2</fifths>
                </key>
                <time symbol="common">
                    <beats>4</beats>
                    <beat-type>4</beat-type>
                </time>
                <clef>
                    <sign>G</sign>
                </clef>
            </attributes>
            <note>
                <pitch>
                    <step>B</step>
                    <alter>-1</alter>
                    <octave>3</octave>
                </pitch>
                <duration>960</duration>
                <type>quarter</type>
            </note>
        </measure>
        <!--=============== 2 ===============-->
        <measure number="1">
            <print new-system="no"/>
            <attributes>
                <divisions>960</divisions>
            </attributes>
            <note>
                <pitch>
                    <step>B</step>
                    <alter>-1</alter>
                    <octave>3</octave>
                </pitch>
                <duration>1920</duration>
                <type>half</type>
            </note>
            <note>
                <pitch>
                    <step>F</step>
                    <octave>3</octave>
                </pitch>
                <duration>960</duration>
                <type>quarter</type>
            </note>
            <note>
                <pitch>
                    <step>B</step>
                    <alter>-1</alter>
                    <octave>3</octave>
                </pitch>
                <duration>960</duration>
                <type>quarter</type>
            </note>
        </measure>
        <!--=============== 3 ===============-->
        <measure number="2">
            <print new-system="no"/>
            <attributes>
                <divisions>960</divisions>
            </attributes>
            <note>
                <pitch>
                    <step>C</step>
                    <octave>4</octave>
                </pitch>
                <duration>1920</duration>
                <type>half</type>
            </note>
            <note>
                <pitch>
                    <step>F</step>
                    <octave>3</octave>
                </pitch>
                <duration>960</duration>
                <type>quarter</type>
            </note>
            <note>
                <pitch>
                    <step>G</step>
                    <octave>3</octave>
                </pitch>
                <duration>480</duration>
                <type>eighth</type>
                <stem>up</stem>
                <beam number="1">begin</beam>
            </note>
            <note>
                <pitch>
                    <step>A</step>
                    <octave>3</octave>
                </pitch>
                <duration>480</duration>
                <type>eighth</type>
                <stem>up</stem>
                <beam number="1">end</beam>
            </note>
        </measure>
        <!--=============== 4 ===============-->
        <measure number="3">
            <print new-system="no"/>
            <attributes>
                <divisions>960</divisions>
            </attributes>
            <note>
                <pitch>
                    <step>B</step>
                    <alter>-1</alter>
                    <octave>3</octave>
                </pitch>
                <duration>960</duration>
                <type>quarter</type>
            </note>
            <note>
                <pitch>
                    <step>C</step>
                    <octave>4</octave>
                </pitch>
                <duration>960</duration>
                <type>quarter</type>
            </note>
            <note>
                <pitch>
                    <step>B</step>
                    <alter>-1</alter>
                    <octave>3</octave>
                </pitch>
                <duration>960</duration>
                <type>quarter</type>
            </note>
            <note>
                <pitch>
                    <step>B</step>
                    <alter>-1</alter>
                    <octave>3</octave>
                </pitch>
                <duration>960</duration>
                <type>quarter</type>
            </note>
        </measure>
        <!--=============== 5 ===============-->
        <measure number="4">
            <print new-system="no"/>
            <attributes>
                <divisions>960</divisions>
            </attributes>
            <note>
                <pitch>
                    <step>B</step>
                    <alter>-1</alter>
                    <octave>3</octave>
                </pitch>
                <duration>1920</duration>
                <type>half</type>
            </note>
            <note>
                <pitch>
                    <step>C</step>
                    <octave>4</octave>
                </pitch>
                <duration>960</duration>
                <type>quarter</type>
            </note>
            <note>
                <pitch>
                    <step>F</step>
                    <octave>4</octave>
                </pitch>
                <duration>960</duration>
                <type>quarter</type>
            </note>
        </measure>
        <!--=============== 6 ===============-->
        <measure number="5">
            <print new-system="no"/>
            <attributes>
                <divisions>960</divisions>
            </attributes>
            <note>
                <pitch>
                    <step>D</step>
                    <octave>4</octave>
                </pitch>
                <duration>960</duration>
                <type>quarter</type>
                <notations>
                    <slur type="start"/>
                </notations>
            </note>
            <note>
                <pitch>
                    <step>E</step>
                    <octave>4</octave>
                </pitch>
                <duration>960</duration>
                <type>quarter</type>
                <accidental>natural</accidental>
                <notations>
                    <slur type="stop"/>
                </notations>
            </note>
            <note>
                <pitch>
                    <step>F</step>
                    <octave>4</octave>
                </pitch>
                <duration>960</duration>
                <type>quarter</type>
            </note>
            <note>
                <pitch>
                    <step>E</step>
                    <octave>4</octave>
                </pitch>
                <duration>960</duration>
                <type>quarter</type>
            </note>
        </measure>
        <!--=============== 7 ===============-->
        <measure number="6">
            <print new-system="no"/>
            <attributes>
                <divisions>960</divisions>
            </attributes>
            <note>
                <pitch>
                    <step>F</step>
                    <octave>4</octave>
                </pitch>
                <duration>1920</duration>
                <type>half</type>
            </note>
            <note>
                <pitch>
                    <step>F</step>
                    <octave>4</octave>
                </pitch>
                <duration>960</duration>
                <type>quarter</type>
            </note>
            <note>
                <pitch>
                    <step>F</step>
                    <octave>4</octave>
                </pitch>
                <duration>960</duration>
                <type>quarter</type>
            </note>
        </measure>
        <!--=============== 8 ===============-->
        <measure number="7">
            <print new-system="no"/>
            <attributes>
                <divisions>960</divisions>
            </attributes>
            <note>
                <pitch>
                    <step>F</step>
                    <octave>4</octave>
                </pitch>
                <duration>1920</duration>
                <type>half</type>
            </note>
            <note>
                <pitch>
                    <step>F</step>
                    <octave>4</octave>
                </pitch>
                <duration>960</duration>
                <type>quarter</type>
                <notations>
                    <slur type="start"/>
                </notations>
            </note>
            <note>
                <pitch>
                    <step>E</step>
                    <octave>4</octave>
                </pitch>
                <duration>960</duration>
                <type>quarter</type>
                <accidental>natural</accidental>
                <notations>
                    <slur type="stop"/>
                </notations>
            </note>
        </measure>
        <!--=============== 9 ===============-->
        <measure number="8">
            <print new-system="no"/>
            <attributes>
                <divisions>960</divisions>
            </attributes>
            <note>
                <pitch>
                    <step>F</step>
                    <octave>4</octave>
                </pitch>
                <duration>2880</duration>
                <type>half</type>
                <dot/>
            </note>
            <note>
                <rest/>
                <duration>960</duration>
                <type>quarter</type>
            </note>
        </measure>
        <!--=============== 10 ===============-->
        <measure number="9">
            <print new-system="no"/>
            <attributes>
                <divisions>960</divisions>
            </attributes>
            <note>
                <pitch>
                    <step>F</step>
                    <octave>4</octave>
                </pitch>
                <duration>1920</duration>
                <type>half</type>
            </note>
            <note>
                <pitch>
                    <step>F</step>
                    <octave>4</octave>
                </pitch>
                <duration>960</duration>
                <type>quarter</type>
            </note>
            <note>
                <pitch>
                    <step>F</step>
                    <octave>4</octave>
                </pitch>
                <duration>960</duration>
                <type>quarter</type>
            </note>
        </measure>
        <!--=============== 11 ===============-->
        <measure number="10">
            <print new-system="no"/>
            <attributes>
                <divisions>960</divisions>
            </attributes>
            <note>
                <pitch>
                    <step>F</step>
                    <octave>4</octave>
                </pitch>
                <duration>1920</duration>
                <type>half</type>
            </note>
            <note>
                <pitch>
                    <step>F</step>
                    <octave>4</octave>
                </pitch>
                <duration>1920</duration>
                <type>half</type>
            </note>
        </measure>
        <!--=============== 12 ===============-->
        <measure number="11">
            <print new-system="no"/>
            <attributes>
                <divisions>960</divisions>
            </attributes>
            <note>
                <pitch>
                    <step>F</step>
                    <octave>4</octave>
                </pitch>
                <duration>960</duration>
                <type>quarter</type>
            </note>
            <note>
                <pitch>
                    <step>D</step>
                    <octave>4</octave>
                </pitch>
                <duration>960</duration>
                <type>quarter</type>
            </note>
            <note>
                <pitch>
                    <step>D</step>
                    <octave>4</octave>
                </pitch>
                <duration>960</duration>
                <type>quarter</type>
            </note>
            <note>
                <pitch>
                    <step>G</step>
                    <octave>4</octave>
                </pitch>
                <duration>960</duration>
                <type>quarter</type>
            </note>
        </measure>
        <!--=============== 13 ===============-->
        <measure number="12">
            <print new-system="no"/>
            <attributes>
                <divisions>960</divisions>
            </attributes>
            <note>
                <pitch>
                    <step>F</step>
                    <octave>4</octave>
                </pitch>
                <duration>960</duration>
                <type>quarter</type>
            </note>
            <note>
                <pitch>
                    <step>E</step>
                    <octave>4</octave>
                </pitch>
                <duration>960</duration>
                <type>quarter</type>
                <accidental>natural</accidental>
            </note>
            <note>
                <pitch>
                    <step>C</step>
                    <octave>4</octave>
                </pitch>
                <duration>960</duration>
                <type>quarter</type>
            </note>
            <note>
                <pitch>
                    <step>F</step>
                    <octave>4</octave>
                </pitch>
                <duration>960</duration>
                <type>quarter</type>
            </note>
        </measure>
        <!--=============== 14 ===============-->
        <measure number="13">
            <print new-system="no"/>
            <attributes>
                <divisions>960</divisions>
            </attributes>
            <note>
                <pitch>
                    <step>F</step>
                    <octave>4</octave>
                </pitch>
                <duration>960</duration>
                <type>quarter</type>
            </note>
            <note>
                <pitch>
                    <step>F</step>
                    <octave>4</octave>
                </pitch>
                <duration>960</duration>
                <type>quarter</type>
            </note>
            <note>
                <pitch>
                    <step>F</step>
                    <octave>4</octave>
                </pitch>
                <duration>960</duration>
                <type>quarter</type>
            </note>
            <note>
                <pitch>
                    <step>F</step>
                    <octave>4</octave>
                </pitch>
                <duration>960</duration>
                <type>quarter</type>
            </note>
        </measure>
        <!--=============== 15 ===============-->
        <measure number="14">
            <print new-system="no"/>
            <attributes>
                <divisions>960</divisions>
            </attributes>
            <note>
                <pitch>
                    <step>F</step>
                    <octave>4</octave>
                </pitch>
                <duration>1920</duration>
                <type>half</type>
            </note>
            <note>
                <pitch>
                    <step>F</step>
                    <octave>4</octave>
                </pitch>
                <duration>960</duration>
                <type>quarter</type>
            </note>
            <note>
                <pitch>
                    <step>F</step>
                    <octave>4</octave>
                </pitch>
                <duration>960</duration>
                <type>quarter</type>
            </note>
        </measure>
        <!--=============== 16 ===============-->
        <measure number="15">
            <print new-system="no"/>
            <attributes>
                <divisions>960</divisions>
            </attributes>
            <note>
                <pitch>
                    <step>F</step>
                    <octave>4</octave>
                </pitch>
                <duration>960</duration>
                <type>quarter</type>
            </note>
            <note>
                <pitch>
                    <step>F</step>
                    <octave>4</octave>
                </pitch>
                <duration>960</duration>
                <type>quarter</type>
            </note>
            <note>
                <pitch>
                    <step>F</step>
                    <octave>4</octave>
                </pitch>
                <duration>960</duration>
                <type>quarter</type>
            </note>
            <note>
                <pitch>
                    <step>E</step>
                    <alter>-1</alter>
                    <octave>4</octave>
                </pitch>
                <duration>960</duration>
                <type>quarter</type>
            </note>
        </measure>
        <!--=============== 17 ===============-->
        <measure number="16">
            <print new-system="no"/>
            <attributes>
                <divisions>960</divisions>
            </attributes>
            <note>
                <pitch>
                    <step>F</step>
                    <octave>4</octave>
                </pitch>
                <duration>960</duration>
                <type>quarter</type>
                <notations>
                    <slur type="start"/>
                </notations>
            </note>
            <note>
                <pitch>
                    <step>G</step>
                    <octave>4</octave>
                </pitch>
                <duration>960</duration>
                <type>quarter</type>
                <notations>
                    <slur type="stop"/>
                </notations>
            </note>
            <note>
                <pitch>
                    <step>A</step>
                    <octave>4</octave>
                </pitch>
                <duration>960</duration>
                <type>quarter</type>
            </note>
            <note>
                <pitch>
                    <step>F</step>
                    <octave>4</octave>
                </pitch>
                <duration>960</duration>
                <type>quarter</type>
            </note>
        </measure>
        <!--=============== 18 ===============-->
        <measure number="17">
            <print new-system="no"/>
            <attributes>
                <divisions>960</divisions>
            </attributes>
            <note>
                <pitch>
                    <step>F</step>
                    <octave>4</octave>
                </pitch>
                <duration>960</duration>
                <type>quarter</type>
            </note>
            <note>
                <pitch>
                    <step>F</step>
                    <octave>4</octave>
                </pitch>
                <duration>960</duration>
                <type>quarter</type>
            </note>
            <note>
                <pitch>
                    <step>G</step>
                    <octave>4</octave>
                </pitch>
                <duration>960</duration>
                <type>quarter</type>
            </note>
            <note>
                <pitch>
                    <step>G</step>
                    <octave>4</octave>
                </pitch>
                <duration>960</duration>
                <type>quarter</type>
            </note>
        </measure>
        <!--=============== 19 ===============-->
        <measure number="18">
            <print new-system="no"/>
            <attributes>
                <divisions>960</divisions>
            </attributes>
            <note>
                <pitch>
                    <step>G</step>
                    <octave>4</octave>
                </pitch>
                <duration>960</duration>
                <type>quarter</type>
                <notations>
                    <slur type="start"/>
                </notations>
            </note>
            <note>
                <pitch>
                    <step>F</step>
                    <alter>1</alter>
                    <octave>4</octave>
                </pitch>
                <duration>960</duration>
                <type>quarter</type>
                <accidental>sharp</accidental>
                <notations>
                    <slur type="stop"/>
                </notations>
            </note>
            <note>
                <pitch>
                    <step>G</step>
                    <octave>4</octave>
                </pitch>
                <duration>960</duration>
                <type>quarter</type>
                <notations>
                    <slur type="start"/>
                </notations>
            </note>
            <note>
                <pitch>
                    <step>G</step>
                    <octave>4</octave>
                </pitch>
                <duration>960</duration>
                <type>quarter</type>
                <notations>
                    <slur type="stop"/>
                </notations>
            </note>
        </measure>
        <!--=============== 20 ===============-->
        <measure number="19">
            <print new-system="no"/>
            <attributes>
                <divisions>960</divisions>
            </attributes>
            <note>
                <pitch>
                    <step>F</step>
                    <octave>4</octave>
                </pitch>
                <duration>1920</duration>
                <type>half</type>
                <notations>
                    <slur type="start"/>
                </notations>
            </note>
            <note>
                <pitch>
                    <step>E</step>
                    <octave>4</octave>
                </pitch>
                <duration>960</duration>
                <type>quarter</type>
                <accidental>natural</accidental>
                <notations>
                    <slur type="stop"/>
                </notations>
            </note>
            <note>
                <pitch>
                    <step>F</step>
                    <octave>4</octave>
                </pitch>
                <duration>960</duration>
                <type>quarter</type>
            </note>
        </measure>
        <!--=============== 21 ===============-->
        <measure number="20">
            <print new-system="no"/>
            <attributes>
                <divisions>960</divisions>
            </attributes>
            <barline location="right">
                <bar-style>light-heavy</bar-style>
                <repeat direction="backward"/>
            </barline>
            <note>
                <pitch>
                    <step>F</step>
                    <octave>4</octave>
                </pitch>
                <duration>2880</duration>
                <type>half</type>
                <dot/>
            </note>
        </measure>
        <!--=============== 22 ===============-->
        <measure number="21">
            <print new-system="no"/>
            <attributes>
                <divisions>960</divisions>
            </attributes>
            <barline location="left">
                <bar-style>light-heavy</bar-style>
            </barline>
        </measure>
    </part>
    <part id="P3">
        <!--=============== 1 ===============-->
        <measure number="0">
            <attributes>
                <divisions>960</divisions>
                <key>
                    <fifths>0</fifths>
                </key>
                <time symbol="common">
                    <beats>4</beats>
                    <beat-type>4</beat-type>
                </time>
                <clef>
                    <sign>F</sign>
                </clef>
                <transpose>
                    <diatonic>-1</diatonic>
                    <chromatic>-2</chromatic>
                </transpose>
            </attributes>
            <note>
                <pitch>
                    <step>C</step>
                    <octave>4</octave>
                </pitch>
                <duration>960</duration>
                <type>quarter</type>
            </note>
        </measure>
        <!--=============== 2 ===============-->
        <measure number="1">
            <print new-system="no"/>
            <attributes>
                <divisions>960</divisions>
            </attributes>
            <note>
                <pitch>
                    <step>C</step>
                    <octave>4</octave>
                </pitch>
                <duration>1920</duration>
                <type>half</type>
            </note>
            <note>
                <pitch>
                    <step>G</step>
                    <octave>3</octave>
                </pitch>
                <duration>960</duration>
                <type>quarter</type>
            </note>
            <note>
                <pitch>
                    <step>C</step>
                    <octave>4</octave>
                </pitch>
                <duration>960</duration>
                <type>quarter</type>
            </note>
        </measure>
        <!--=============== 3 ===============-->
        <measure number="2">
            <print new-system="no"/>
            <attributes>
                <divisions>960</divisions>
            </attributes>
            <note>
                <pitch>
                    <step>D</step>
                    <octave>4</octave>
                </pitch>
                <duration>1920</duration>
                <type>half</type>
            </note>
            <note>
                <pitch>
                    <step>G</step>
                    <octave>3</octave>
                </pitch>
                <duration>960</duration>
                <type>quarter</type>
            </note>
            <note>
                <pitch>
                    <step>G</step>
                    <octave>3</octave>
                </pitch>
                <duration>960</duration>
                <type>quarter</type>
            </note>
        </measure>
        <!--=============== 4 ===============-->
        <measure number="3">
            <print new-system="no"/>
            <attributes>
                <divisions>960</divisions>
            </attributes>
            <note>
                <pitch>
                    <step>G</step>
                    <octave>3</octave>
                </pitch>
                <duration>960</duration>
                <type>quarter</type>
            </note>
            <note>
                <pitch>
                    <step>G</step>
                    <octave>3</octave>
                </pitch>
                <duration>960</duration>
                <type>quarter</type>
            </note>
            <note>
                <pitch>
                    <step>G</step>
                    <octave>3</octave>
                </pitch>
                <duration>960</duration>
                <type>quarter</type>
            </note>
            <note>
                <pitch>
                    <step>A</step>
                    <octave>3</octave>
                </pitch>
                <duration>960</duration>
                <type>quarter</type>
            </note>
        </measure>
        <!--=============== 5 ===============-->
        <measure number="4">
            <print new-system="no"/>
            <attributes>
                <divisions>960</divisions>
            </attributes>
            <note>
                <pitch>
                    <step>G</step>
                    <octave>3</octave>
                </pitch>
                <duration>1920</duration>
                <type>half</type>
            </note>
            <note>
                <pitch>
                    <step>G</step>
                    <octave>3</octave>
                </pitch>
                <duration>960</duration>
                <type>quarter</type>
            </note>
            <note>
                <pitch>
                    <step>C</step>
                    <octave>4</octave>
                </pitch>
                <duration>960</duration>
                <type>quarter</type>
            </note>
        </measure>
        <!--=============== 6 ===============-->
        <measure number="5">
            <print new-system="no"/>
            <attributes>
                <divisions>960</divisions>
            </attributes>
            <note>
                <pitch>
                    <step>C</step>
                    <octave>4</octave>
                </pitch>
                <duration>1920</duration>
                <type>half</type>
            </note>
            <note>
                <pitch>
                    <step>D</step>
                    <octave>4</octave>
                </pitch>
                <duration>960</duration>
                <type>quarter</type>
            </note>
            <note>
                <pitch>
                    <step>D</step>
                    <octave>4</octave>
                </pitch>
                <duration>960</duration>
                <type>quarter</type>
            </note>
        </measure>
        <!--=============== 7 ===============-->
        <measure number="6">
            <print new-system="no"/>
            <attributes>
                <divisions>960</divisions>
            </attributes>
            <note>
                <pitch>
                    <step>D</step>
                    <octave>4</octave>
                </pitch>
                <duration>1920</duration>
                <type>half</type>
            </note>
            <note>
                <pitch>
                    <step>D</step>
                    <octave>4</octave>
                </pitch>
                <duration>960</duration>
                <type>quarter</type>
            </note>
            <note>
                <pitch>
                    <step>C</step>
                    <octave>4</octave>
                </pitch>
                <duration>960</duration>
                <type>quarter</type>
            </note>
        </measure>
        <!--=============== 8 ===============-->
        <measure number="7">
            <print new-system="no"/>
            <attributes>
                <divisions>960</divisions>
            </attributes>
            <note>
                <pitch>
                    <step>E</step>
                    <octave>4</octave>
                </pitch>
                <duration>1920</duration>
                <type>half</type>
            </note>
            <note>
                <pitch>
                    <step>D</step>
                    <octave>4</octave>
                </pitch>
                <duration>1920</duration>
                <type>half</type>
            </note>
        </measure>
        <!--=============== 9 ===============-->
        <measure number="8">
            <print new-system="no"/>
            <attributes>
                <divisions>960</divisions>
            </attributes>
            <note>
                <pitch>
                    <step>B</step>
                    <octave>3</octave>
                </pitch>
                <duration>2880</duration>
                <type>half</type>
                <dot/>
            </note>
            <note>
                <rest/>
                <duration>960</duration>
                <type>quarter</type>
            </note>
        </measure>
        <!--=============== 10 ===============-->
        <measure number="9">
            <print new-system="no"/>
            <attributes>
                <divisions>960</divisions>
            </attributes>
            <note>
                <pitch>
                    <step>G</step>
                    <octave>3</octave>
                </pitch>
                <duration>1920</duration>
                <type>half</type>
            </note>
            <note>
                <pitch>
                    <step>G</step>
                    <octave>3</octave>
                </pitch>
                <duration>960</duration>
                <type>quarter</type>
            </note>
            <note>
                <pitch>
                    <step>G</step>
                    <octave>3</octave>
                </pitch>
                <duration>960</duration>
                <type>quarter</type>
            </note>
        </measure>
        <!--=============== 11 ===============-->
        <measure number="10">
            <print new-system="no"/>
            <attributes>
                <divisions>960</divisions>
            </attributes>
            <note>
                <pitch>
                    <step>G</step>
                    <octave>3</octave>
                </pitch>
                <duration>1920</duration>
                <type>half</type>
            </note>
            <note>
                <pitch>
                    <step>G</step>
                    <octave>3</octave>
                </pitch>
                <duration>1920</duration>
                <type>half</type>
            </note>
        </measure>
        <!--=============== 12 ===============-->
        <measure number="11">
            <print new-system="no"/>
            <attributes>
                <divisions>960</divisions>
            </attributes>
            <note>
                <pitch>
                    <step>D</step>
                    <octave>4</octave>
                </pitch>
                <duration>960</duration>
                <type>quarter</type>
            </note>
            <note>
                <pitch>
                    <step>B</step>
                    <octave>3</octave>
                </pitch>
                <duration>960</duration>
                <type>quarter</type>
            </note>
            <note>
                <pitch>
                    <step>C</step>
                    <octave>4</octave>
                </pitch>
                <duration>960</duration>
                <type>quarter</type>
            </note>
            <note>
                <pitch>
                    <step>A</step>
                    <octave>3</octave>
                </pitch>
                <duration>960</duration>
                <type>quarter</type>
            </note>
        </measure>
        <!--=============== 13 ===============-->
        <measure number="12">
            <print new-system="no"/>
            <attributes>
                <divisions>960</divisions>
            </attributes>
            <note>
                <pitch>
                    <step>D</step>
                    <octave>4</octave>
                </pitch>
                <duration>960</duration>
                <type>quarter</type>
            </note>
            <note>
                <pitch>
                    <step>C</step>
                    <octave>4</octave>
                </pitch>
                <duration>960</duration>
                <type>quarter</type>
            </note>
            <note>
                <pitch>
                    <step>B</step>
                    <octave>3</octave>
                </pitch>
                <duration>960</duration>
                <type>quarter</type>
            </note>
            <note>
                <pitch>
                    <step>C</step>
                    <octave>4</octave>
                </pitch>
                <duration>960</duration>
                <type>quarter</type>
            </note>
        </measure>
        <!--=============== 14 ===============-->
        <measure number="13">
            <print new-system="no"/>
            <attributes>
                <divisions>960</divisions>
            </attributes>
            <note>
                <pitch>
                    <step>C</step>
                    <octave>4</octave>
                </pitch>
                <duration>960</duration>
                <type>quarter</type>
            </note>
            <note>
                <pitch>
                    <step>D</step>
                    <octave>4</octave>
                </pitch>
                <duration>960</duration>
                <type>quarter</type>
            </note>
            <note>
                <pitch>
                    <step>E</step>
                    <octave>4</octave>
                </pitch>
                <duration>960</duration>
                <type>quarter</type>
            </note>
            <note>
                <pitch>
                    <step>D</step>
                    <octave>4</octave>
                </pitch>
                <duration>960</duration>
                <type>quarter</type>
            </note>
        </measure>
        <!--=============== 15 ===============-->
        <measure number="14">
            <print new-system="no"/>
            <attributes>
                <divisions>960</divisions>
            </attributes>
            <note>
                <pitch>
                    <step>E</step>
                    <octave>4</octave>
                </pitch>
                <duration>1920</duration>
                <type>half</type>
            </note>
            <note>
                <pitch>
                    <step>E</step>
                    <octave>4</octave>
                </pitch>
                <duration>960</duration>
                <type>quarter</type>
            </note>
            <note>
                <pitch>
                    <step>C</step>
                    <octave>4</octave>
                </pitch>
                <duration>960</duration>
                <type>quarter</type>
            </note>
        </measure>
        <!--=============== 16 ===============-->
        <measure number="15">
            <print new-system="no"/>
            <attributes>
                <divisions>960</divisions>
            </attributes>
            <note>
                <pitch>
                    <step>C</step>
                    <octave>4</octave>
                </pitch>
                <duration>960</duration>
                <type>quarter</type>
            </note>
            <note>
                <pitch>
                    <step>G</step>
                    <octave>3</octave>
                </pitch>
                <duration>960</duration>
                <type>quarter</type>
            </note>
            <note>
                <pitch>
                    <step>C</step>
                    <octave>4</octave>
                </pitch>
                <duration>960</duration>
                <type>quarter</type>
            </note>
            <note>
                <pitch>
                    <step>D</step>
                    <octave>4</octave>
                </pitch>
                <duration>960</duration>
                <type>quarter</type>
            </note>
        </measure>
        <!--=============== 17 ===============-->
        <measure number="16">
            <print new-system="no"/>
            <attributes>
                <divisions>960</divisions>
            </attributes>
            <note>
                <pitch>
                    <step>E</step>
                    <octave>4</octave>
                </pitch>
                <duration>960</duration>
                <type>quarter</type>
                <notations>
                    <slur type="start"/>
                </notations>
            </note>
            <note>
                <pitch>
                    <step>F</step>
                    <octave>4</octave>
                </pitch>
                <duration>960</duration>
                <type>quarter</type>
                <notations>
                    <slur type="stop"/>
                </notations>
            </note>
            <note>
                <pitch>
                    <step>G</step>
                    <octave>4</octave>
                </pitch>
                <duration>960</duration>
                <type>quarter</type>
            </note>
            <note>
                <pitch>
                    <step>E</step>
                    <octave>4</octave>
                </pitch>
                <duration>960</duration>
                <type>quarter</type>
            </note>
        </measure>
        <!--=============== 18 ===============-->
        <measure number="17">
            <print new-system="no"/>
            <attributes>
                <divisions>960</divisions>
            </attributes>
            <note>
                <pitch>
                    <step>F</step>
                    <octave>4</octave>
                </pitch>
                <duration>960</duration>
                <type>quarter</type>
            </note>
            <note>
                <pitch>
                    <step>G</step>
                    <octave>4</octave>
                </pitch>
                <duration>960</duration>
                <type>quarter</type>
            </note>
            <note>
                <pitch>
                    <step>F</step>
                    <octave>4</octave>
                </pitch>
                <duration>960</duration>
                <type>quarter</type>
            </note>
            <note>
                <pitch>
                    <step>E</step>
                    <octave>4</octave>
                </pitch>
                <duration>960</duration>
                <type>quarter</type>
            </note>
        </measure>
        <!--=============== 19 ===============-->
        <measure number="18">
            <print new-system="no"/>
            <attributes>
                <divisions>960</divisions>
            </attributes>
            <note>
                <pitch>
                    <step>E</step>
                    <octave>4</octave>
                </pitch>
                <duration>1920</duration>
                <type>half</type>
            </note>
            <note>
                <pitch>
                    <step>E</step>
                    <octave>4</octave>
                </pitch>
                <duration>960</duration>
                <type>quarter</type>
                <notations>
                    <slur type="start"/>
                </notations>
                <notations>
                    <slur type="stop"/>
                </notations>
            </note>
            <note>
                <pitch>
                    <step>F</step>
                    <octave>4</octave>
                </pitch>
                <duration>960</duration>
                <type>quarter</type>
            </note>
        </measure>
        <!--=============== 20 ===============-->
        <measure number="19">
            <print new-system="no"/>
            <attributes>
                <divisions>960</divisions>
            </attributes>
            <note>
                <pitch>
                    <step>C</step>
                    <octave>4</octave>
                </pitch>
                <duration>2880</duration>
                <type>half</type>
                <dot/>
                <notations>
                    <slur type="start"/>
                </notations>
            </note>
            <note>
                <pitch>
                    <step>D</step>
                    <octave>4</octave>
                </pitch>
                <duration>960</duration>
                <type>quarter</type>
                <notations>
                    <slur type="stop"/>
                </notations>
            </note>
        </measure>
        <!--=============== 21 ===============-->
        <measure number="20">
            <print new-system="no"/>
            <attributes>
                <divisions>960</divisions>
            </attributes>
            <barline location="right">
                <bar-style>light-heavy</bar-style>
                <repeat direction="backward"/>
            </barline>
            <note>
                <pitch>
                    <step>E</step>
                    <octave>4</octave>
                </pitch>
                <duration>2880</duration>
                <type>half</type>
                <dot/>
            </note>
        </measure>
        <!--=============== 22 ===============-->
        <measure number="21">
            <print new-system="no"/>
            <attributes>
                <divisions>960</divisions>
            </attributes>
            <barline location="left">
                <bar-style>light-heavy</bar-style>
            </barline>
        </measure>
    </part>
    <part id="P4">
        <!--=============== 1 ===============-->
        <measure number="0">
            <attributes>
                <divisions>960</divisions>
                <key>
                    <fifths>-2</fifths>
                </key>
                <time symbol="common">
                    <beats>4</beats>
                    <beat-type>4</beat-type>
                </time>
                <clef>
                    <sign>F</sign>
                </clef>
            </attributes>
            <note>
                <pitch>
                    <step>B</step>
                    <alter>-1</alter>
                    <octave>3</octave>
                </pitch>
                <duration>960</duration>
                <type>quarter</type>
            </note>
        </measure>
        <!--=============== 2 ===============-->
        <measure number="1">
            <print new-system="no"/>
            <attributes>
                <divisions>960</divisions>
            </attributes>
            <note>
                <pitch>
                    <step>B</step>
                    <alter>-1</alter>
                    <octave>3</octave>
                </pitch>
                <duration>1920</duration>
                <type>half</type>
            </note>
            <note>
                <pitch>
                    <step>F</step>
                    <octave>3</octave>
                </pitch>
                <duration>960</duration>
                <type>quarter</type>
            </note>
            <note>
                <pitch>
                    <step>B</step>
                    <alter>-1</alter>
                    <octave>3</octave>
                </pitch>
                <duration>960</duration>
                <type>quarter</type>
            </note>
        </measure>
        <!--=============== 3 ===============-->
        <measure number="2">
            <print new-system="no"/>
            <attributes>
                <divisions>960</divisions>
            </attributes>
            <note>
                <pitch>
                    <step>C</step>
                    <octave>4</octave>
                </pitch>
                <duration>1920</duration>
                <type>half</type>
            </note>
            <note>
                <pitch>
                    <step>F</step>
                    <octave>3</octave>
                </pitch>
                <duration>960</duration>
                <type>quarter</type>
            </note>
            <note>
                <pitch>
                    <step>E</step>
                    <alter>-1</alter>
                    <octave>3</octave>
                </pitch>
                <duration>960</duration>
                <type>quarter</type>
            </note>
        </measure>
        <!--=============== 4 ===============-->
        <measure number="3">
            <print new-system="no"/>
            <attributes>
                <divisions>960</divisions>
            </attributes>
            <note>
                <pitch>
                    <step>D</step>
                    <octave>3</octave>
                </pitch>
                <duration>960</duration>
                <type>quarter</type>
            </note>
            <note>
                <pitch>
                    <step>F</step>
                    <octave>3</octave>
                </pitch>
                <duration>960</duration>
                <type>quarter</type>
            </note>
            <note>
                <pitch>
                    <step>B</step>
                    <alter>-1</alter>
                    <octave>2</octave>
                </pitch>
                <duration>960</duration>
                <type>quarter</type>
            </note>
            <note>
                <pitch>
                    <step>E</step>
                    <alter>-1</alter>
                    <octave>3</octave>
                </pitch>
                <duration>960</duration>
                <type>quarter</type>
            </note>
        </measure>
        <!--=============== 5 ===============-->
        <measure number="4">
            <print new-system="no"/>
            <attributes>
                <divisions>960</divisions>
            </attributes>
            <note>
                <pitch>
                    <step>B</step>
                    <alter>-1</alter>
                    <octave>2</octave>
                </pitch>
                <duration>960</duration>
                <type>quarter</type>
            </note>
            <note>
                <pitch>
                    <step>D</step>
                    <octave>3</octave>
                </pitch>
                <duration>960</duration>
                <type>quarter</type>
            </note>
            <note>
                <pitch>
                    <step>F</step>
                    <octave>3</octave>
                </pitch>
                <duration>960</duration>
                <type>quarter</type>
            </note>
            <note>
                <pitch>
                    <step>D</step>
                    <octave>3</octave>
                </pitch>
                <duration>960</duration>
                <type>quarter</type>
            </note>
        </measure>
        <!--=============== 6 ===============-->
        <measure number="5">
            <print new-system="no"/>
            <attributes>
                <divisions>960</divisions>
            </attributes>
            <note>
                <pitch>
                    <step>G</step>
                    <octave>3</octave>
                </pitch>
                <duration>1920</duration>
                <type>half</type>
            </note>
            <note>
                <pitch>
                    <step>F</step>
                    <octave>3</octave>
                </pitch>
                <duration>960</duration>
                <type>quarter</type>
            </note>
            <note>
                <pitch>
                    <step>C</step>
                    <octave>3</octave>
                </pitch>
                <duration>960</duration>
                <type>quarter</type>
            </note>
        </measure>
        <!--=============== 7 ===============-->
        <measure number="6">
            <print new-system="no"/>
            <attributes>
                <divisions>960</divisions>
            </attributes>
            <note>
                <pitch>
                    <step>F</step>
                    <octave>3</octave>
                </pitch>
                <duration>960</duration>
                <type>quarter</type>
                <notations>
                    <slur type="start"/>
                </notations>
            </note>
            <note>
                <pitch>
                    <step>G</step>
                    <octave>3</octave>
                </pitch>
                <duration>960</duration>
                <type>quarter</type>
                <notations>
                    <slur type="stop"/>
                </notations>
            </note>
            <note>
                <pitch>
                    <step>A</step>
                    <octave>3</octave>
                </pitch>
                <duration>960</duration>
                <type>quarter</type>
            </note>
            <note>
                <pitch>
                    <step>B</step>
                    <alter>-1</alter>
                    <octave>3</octave>
                </pitch>
                <duration>960</duration>
                <type>quarter</type>
            </note>
        </measure>
        <!--=============== 8 ===============-->
        <measure number="7">
            <print new-system="no"/>
            <attributes>
                <divisions>960</divisions>
            </attributes>
            <note>
                <pitch>
                    <step>D</step>
                    <octave>3</octave>
                </pitch>
                <duration>960</duration>
                <type>quarter</type>
                <notations>
                    <slur type="start"/>
                </notations>
            </note>
            <note>
                <pitch>
                    <step>G</step>
                    <octave>3</octave>
                </pitch>
                <duration>960</duration>
                <type>quarter</type>
                <notations>
                    <slur type="stop"/>
                </notations>
            </note>
            <note>
                <pitch>
                    <step>C</step>
                    <octave>4</octave>
                </pitch>
                <duration>1920</duration>
                <type>half</type>
            </note>
        </measure>
        <!--=============== 9 ===============-->
        <measure number="8">
            <print new-system="no"/>
            <attributes>
                <divisions>960</divisions>
            </attributes>
            <note>
                <pitch>
                    <step>F</step>
                    <octave>3</octave>
                </pitch>
                <duration>2880</duration>
                <type>half</type>
                <dot/>
            </note>
            <note>
                <rest/>
                <duration>960</duration>
                <type>quarter</type>
            </note>
        </measure>
        <!--=============== 10 ===============-->
        <measure number="9">
            <print new-system="no"/>
            <attributes>
                <divisions>960</divisions>
            </attributes>
            <note>
                <pitch>
                    <step>B</step>
                    <alter>-1</alter>
                    <octave>2</octave>
                </pitch>
                <duration>1920</duration>
                <type>half</type>
            </note>
            <note>
                <pitch>
                    <step>C</step>
                    <octave>3</octave>
                </pitch>
                <duration>960</duration>
                <type>quarter</type>
            </note>
            <note>
                <pitch>
                    <step>D</step>
                    <octave>3</octave>
                </pitch>
                <duration>960</duration>
                <type>quarter</type>
            </note>
        </measure>
        <!--=============== 11 ===============-->
        <measure number="10">
            <print new-system="no"/>
            <attributes>
                <divisions>960</divisions>
            </attributes>
            <note>
                <pitch>
                    <step>C</step>
                    <octave>3</octave>
                </pitch>
                <duration>960</duration>
                <type>quarter</type>
            </note>
            <note>
                <pitch>
                    <step>F</step>
                    <octave>3</octave>
                </pitch>
                <duration>960</duration>
                <type>quarter</type>
            </note>
            <note>
                <pitch>
                    <step>B</step>
                    <alter>-1</alter>
                    <octave>2</octave>
                </pitch>
                <duration>1920</duration>
                <type>half</type>
            </note>
        </measure>
        <!--=============== 12 ===============-->
        <measure number="11">
            <print new-system="no"/>
            <attributes>
                <divisions>960</divisions>
            </attributes>
            <note>
                <pitch>
                    <step>F</step>
                    <octave>3</octave>
                </pitch>
                <duration>960</duration>
                <type>quarter</type>
            </note>
            <note>
                <pitch>
                    <step>F</step>
                    <alter>1</alter>
                    <octave>3</octave>
                </pitch>
                <duration>960</duration>
                <type>quarter</type>
                <accidental>sharp</accidental>
            </note>
            <note>
                <pitch>
                    <step>G</step>
                    <octave>3</octave>
                </pitch>
                <duration>960</duration>
                <type>quarter</type>
            </note>
            <note>
                <pitch>
                    <step>E</step>
                    <octave>3</octave>
                </pitch>
                <duration>960</duration>
                <type>quarter</type>
                <accidental>natural</accidental>
            </note>
        </measure>
        <!--=============== 13 ===============-->
        <measure number="12">
            <print new-system="no"/>
            <attributes>
                <divisions>960</divisions>
            </attributes>
            <note>
                <pitch>
                    <step>F</step>
                    <octave>3</octave>
                </pitch>
                <duration>960</duration>
                <type>quarter</type>
            </note>
            <note>
                <pitch>
                    <step>C</step>
                    <octave>3</octave>
                </pitch>
                <duration>960</duration>
                <type>quarter</type>
            </note>
            <note>
                <pitch>
                    <step>F</step>
                    <octave>3</octave>
                </pitch>
                <duration>960</duration>
                <type>quarter</type>
            </note>
            <note>
                <pitch>
                    <step>D</step>
                    <octave>3</octave>
                </pitch>
                <duration>960</duration>
                <type>quarter</type>
            </note>
        </measure>
        <!--=============== 14 ===============-->
        <measure number="13">
            <print new-system="no"/>
            <attributes>
                <divisions>960</divisions>
            </attributes>
            <note>
                <pitch>
                    <step>D</step>
                    <octave>3</octave>
                </pitch>
                <duration>960</duration>
                <type>quarter</type>
            </note>
            <note>
                <pitch>
                    <step>F</step>
                    <octave>3</octave>
                </pitch>
                <duration>960</duration>
                <type>quarter</type>
            </note>
            <note>
                <pitch>
                    <step>B</step>
                    <alter>-1</alter>
                    <octave>3</octave>
                </pitch>
                <duration>960</duration>
                <type>quarter</type>
            </note>
            <note>
                <pitch>
                    <step>A</step>
                    <octave>3</octave>
                </pitch>
                <duration>960</duration>
                <type>quarter</type>
            </note>
        </measure>
        <!--=============== 15 ===============-->
        <measure number="14">
            <print new-system="no"/>
            <attributes>
                <divisions>960</divisions>
            </attributes>
            <note>
                <pitch>
                    <step>B</step>
                    <alter>-1</alter>
                    <octave>3</octave>
                </pitch>
                <duration>1920</duration>
                <type>half</type>
            </note>
            <note>
                <pitch>
                    <step>B</step>
                    <alter>-1</alter>
                    <octave>3</octave>
                </pitch>
                <duration>960</duration>
                <type>quarter</type>
            </note>
            <note>
                <rest/>
                <duration>960</duration>
                <type>quarter</type>
            </note>
        </measure>
        <!--=============== 16 ===============-->
        <measure number="15">
            <print new-system="no"/>
            <attributes>
                <divisions>960</divisions>
            </attributes>
            <note>
                <rest/>
                <duration>960</duration>
                <type>quarter</type>
            </note>
            <note>
                <rest/>
                <duration>960</duration>
                <type>quarter</type>
            </note>
            <note>
                <rest/>
                <duration>960</duration>
                <type>quarter</type>
            </note>
            <note>
                <rest/>
                <duration>960</duration>
                <type>quarter</type>
            </note>
        </measure>
        <!--=============== 17 ===============-->
        <measure number="16">
            <print new-system="no"/>
            <attributes>
                <divisions>960</divisions>
            </attributes>
            <note>
                <rest/>
                <duration>960</duration>
                <type>quarter</type>
            </note>
            <note>
                <rest/>
                <duration>960</duration>
                <type>quarter</type>
            </note>
            <note>
                <rest/>
                <duration>960</duration>
                <type>quarter</type>
            </note>
            <note>
                <pitch>
                    <step>B</step>
                    <alter>-1</alter>
                    <octave>2</octave>
                </pitch>
                <duration>960</duration>
                <type>quarter</type>
            </note>
        </measure>
        <!--=============== 18 ===============-->
        <measure number="17">
            <print new-system="no"/>
            <attributes>
                <divisions>960</divisions>
            </attributes>
            <note>
                <pitch>
                    <step>C</step>
                    <octave>3</octave>
                </pitch>
                <duration>960</duration>
                <type>quarter</type>
            </note>
            <note>
                <pitch>
                    <step>D</step>
                    <octave>3</octave>
                </pitch>
                <duration>960</duration>
                <type>quarter</type>
            </note>
            <note>
                <pitch>
                    <step>E</step>
                    <alter>-1</alter>
                    <octave>3</octave>
                </pitch>
                <duration>960</duration>
                <type>quarter</type>
            </note>
            <note>
                <pitch>
                    <step>G</step>
                    <octave>3</octave>
                </pitch>
                <duration>960</duration>
                <type>quarter</type>
            </note>
        </measure>
        <!--=============== 19 ===============-->
        <measure number="18">
            <print new-system="no"/>
            <attributes>
                <divisions>960</divisions>
            </attributes>
            <note>
                <pitch>
                    <step>D</step>
                    <octave>3</octave>
                </pitch>
                <duration>1920</duration>
                <type>half</type>
            </note>
            <note>
                <pitch>
                    <step>G</step>
                    <octave>3</octave>
                </pitch>
                <duration>960</duration>
                <type>quarter</type>
                <notations>
                    <slur type="start"/>
                </notations>
            </note>
            <note>
                <pitch>
                    <step>C</step>
                    <octave>3</octave>
                </pitch>
                <duration>960</duration>
                <type>quarter</type>
                <notations>
                    <slur type="stop"/>
                </notations>
            </note>
        </measure>
        <!--=============== 20 ===============-->
        <measure number="19">
            <print new-system="no"/>
            <attributes>
                <divisions>960</divisions>
            </attributes>
            <note>
                <pitch>
                    <step>D</step>
                    <octave>3</octave>
                </pitch>
                <duration>1920</duration>
                <type>half</type>
                <notations>
                    <slur type="start"/>
                </notations>
            </note>
            <note>
                <pitch>
                    <step>G</step>
                    <octave>3</octave>
                </pitch>
                <duration>960</duration>
                <type>quarter</type>
                <notations>
                    <slur type="stop"/>
                </notations>
            </note>
            <note>
                <pitch>
                    <step>F</step>
                    <octave>3</octave>
                </pitch>
                <duration>960</duration>
                <type>quarter</type>
            </note>
        </measure>
        <!--=============== 21 ===============-->
        <measure number="20">
            <print new-system="no"/>
            <attributes>
                <divisions>960</divisions>
            </attributes>
            <barline location="right">
                <bar-style>light-heavy</bar-style>
                <repeat direction="backward"/>
            </barline>
            <note>
                <pitch>
                    <step>B</step>
                    <alter>-1</alter>
                    <octave>2</octave>
                </pitch>
                <duration>2880</duration>
                <type>half</type>
                <dot/>
            </note>
        </measure>
        <!--=============== 22 ===============-->
        <measure number="21">
            <print new-system="no"/>
            <attributes>
                <divisions>960</divisions>
            </attributes>
            <barline location="left">
                <bar-style>light-heavy</bar-style>
            </barline>
        </measure>
    </part>
</score-partwise>
